<?xml version="1.0" encoding="UTF-8"?>
<!DOCTYPE svg PUBLIC "-//W3C//DTD SVG 1.1//EN" "http://www.w3.org/Graphics/SVG/1.1/DTD/svg11.dtd">
<svg xmlns="http://www.w3.org/2000/svg" version="1.1" width="175px" height="174px" style="shape-rendering:geometricPrecision; text-rendering:geometricPrecision; image-rendering:optimizeQuality; fill-rule:evenodd; clip-rule:evenodd" xmlns:xlink="http://www.w3.org/1999/xlink">
<g><path style="opacity:1" fill="#040001" d="M -0.5,-0.5 C 57.8333,-0.5 116.167,-0.5 174.5,-0.5C 174.5,57.5 174.5,115.5 174.5,173.5C 116.167,173.5 57.8333,173.5 -0.5,173.5C -0.5,115.5 -0.5,57.5 -0.5,-0.5 Z"/></g>
<g><path style="opacity:1" fill="#150201" d="M 111.5,22.5 C 109.517,21.5294 107.517,20.5294 105.5,19.5C 103.238,16.8639 101.905,13.8639 101.5,10.5C 92.0144,9.5062 82.3478,9.17287 72.5,9.5C 72.6107,8.88258 72.944,8.38258 73.5,8C 82.4656,8.23512 91.1323,7.06846 99.5,4.5C 102.62,5.5488 105.453,4.88213 108,2.5C 109.269,3.90469 109.769,5.57135 109.5,7.5C 107.533,7.73943 105.699,7.40609 104,6.5C 101.693,12.9679 103.86,17.4679 110.5,20C 111.252,20.6708 111.586,21.5041 111.5,22.5 Z"/></g>
<g><path style="opacity:1" fill="#ae7230" d="M 72.5,9.5 C 82.3478,9.17287 92.0144,9.5062 101.5,10.5C 101.065,13.8375 101.732,16.8375 103.5,19.5C 102.391,19.4431 101.391,19.1098 100.5,18.5C 99.6314,16.283 99.298,13.9496 99.5,11.5C 90.8333,11.5 82.1667,11.5 73.5,11.5C 73.5,32.1667 73.5,52.8333 73.5,73.5C 82.1922,73.8314 90.8589,73.498 99.5,72.5C 100.132,65.7034 100.799,59.0367 101.5,52.5C 101.5,59.8333 101.5,67.1667 101.5,74.5C 101.5,74.8333 101.5,75.1667 101.5,75.5C 91.5837,75.819 81.7504,75.4856 72,74.5C 71.1787,52.7605 71.3454,31.0938 72.5,9.5 Z"/></g>
<g><path style="opacity:1" fill="#fc9905" d="M 100.5,18.5 C 101.391,19.1098 102.391,19.4431 103.5,19.5C 104.261,20.3909 105.261,21.0576 106.5,21.5C 107.386,22.325 107.719,23.325 107.5,24.5C 108.873,24.3433 110.207,24.51 111.5,25C 115.635,29.3997 120.635,32.2331 126.5,33.5C 132.483,36.4913 138.15,39.9913 143.5,44C 146.531,46.0148 149.864,47.1815 153.5,47.5C 152.538,78.4793 152.205,109.479 152.5,140.5C 143.779,140.775 135.113,140.442 126.5,139.5C 126.202,113.042 126.535,86.8758 127.5,61C 121.852,60.5338 116.852,58.5338 112.5,55C 110.482,54.4954 108.482,53.9954 106.5,53.5C 105.047,49.8075 102.88,49.1408 100,51.5C 100.018,56.0692 99.1847,60.4025 97.5,64.5C 98.3742,66.7466 98.7076,69.0799 98.5,71.5C 90.5246,72.2763 82.5246,72.6097 74.5,72.5C 74.3334,53.1638 74.5,33.8305 75,14.5C 75.5,14 76,13.5 76.5,13C 83.8333,12.3333 91.1667,12.3333 98.5,13C 98.5716,15.176 98.2383,17.176 97.5,19C 98.5768,19.4696 99.5768,19.3029 100.5,18.5 Z"/></g>
<g><path style="opacity:1" fill="#5c2706" d="M 101.5,10.5 C 101.905,13.8639 103.238,16.8639 105.5,19.5C 104.833,19.5 104.167,19.5 103.5,19.5C 101.732,16.8375 101.065,13.8375 101.5,10.5 Z"/></g>
<g><path style="opacity:1" fill="#1c0201" d="M 47.5,30.5 C 38.1667,30.5 28.8333,30.5 19.5,30.5C 20.9488,28.8356 22.9488,28.0023 25.5,28C 32.8258,27.5003 40.1591,27.3337 47.5,27.5C 47.5,28.5 47.5,29.5 47.5,30.5 Z"/></g>
<g><path style="opacity:1" fill="#e0962b" d="M 103.5,19.5 C 104.167,19.5 104.833,19.5 105.5,19.5C 107.517,20.5294 109.517,21.5294 111.5,22.5C 114.167,24.5 116.833,26.5 119.5,28.5C 121.455,30.7056 123.788,32.3722 126.5,33.5C 120.635,32.2331 115.635,29.3997 111.5,25C 110.207,24.51 108.873,24.3433 107.5,24.5C 107.719,23.325 107.386,22.325 106.5,21.5C 105.261,21.0576 104.261,20.3909 103.5,19.5 Z"/></g>
<g><path style="opacity:1" fill="#ef9a23" d="M 100.5,18.5 C 99.5768,19.3029 98.5768,19.4696 97.5,19C 98.2383,17.176 98.5716,15.176 98.5,13C 91.1667,12.3333 83.8333,12.3333 76.5,13C 76,13.5 75.5,14 75,14.5C 74.5,33.8305 74.3334,53.1638 74.5,72.5C 82.5246,72.6097 90.5246,72.2763 98.5,71.5C 98.7076,69.0799 98.3742,66.7466 97.5,64.5C 99.1847,60.4025 100.018,56.0692 100,51.5C 102.88,49.1408 105.047,49.8075 106.5,53.5C 105.833,53.5 105.167,53.5 104.5,53.5C 103.828,52.7326 102.995,52.0659 102,51.5C 101.601,51.7284 101.435,52.0618 101.5,52.5C 100.799,59.0367 100.132,65.7034 99.5,72.5C 90.8589,73.498 82.1922,73.8314 73.5,73.5C 73.5,52.8333 73.5,32.1667 73.5,11.5C 82.1667,11.5 90.8333,11.5 99.5,11.5C 99.298,13.9496 99.6314,16.283 100.5,18.5 Z"/></g>
<g><path style="opacity:1" fill="#cc923b" d="M 119.5,28.5 C 126.588,31.8787 133.588,35.5453 140.5,39.5C 144.666,42.4175 148.999,45.0841 153.5,47.5C 149.864,47.1815 146.531,46.0148 143.5,44C 138.15,39.9913 132.483,36.4913 126.5,33.5C 123.788,32.3722 121.455,30.7056 119.5,28.5 Z"/></g>
<g><path style="opacity:1" fill="#260e04" d="M 140.5,39.5 C 143.777,40.4229 147.11,41.2562 150.5,42C 152.159,43.8415 154.159,45.0081 156.5,45.5C 156.5,46.5 156.5,47.5 156.5,48.5C 155.609,47.8902 154.609,47.5569 153.5,47.5C 148.999,45.0841 144.666,42.4175 140.5,39.5 Z"/></g>
<g><path style="opacity:1" fill="#b35803" d="M 64.5,119.5 C 67.2153,121.123 70.2153,121.79 73.5,121.5C 73.5,114.167 73.5,106.833 73.5,99.5C 80.8333,99.5 88.1667,99.5 95.5,99.5C 95.8212,101.048 96.8212,101.715 98.5,101.5C 98.8329,120.512 98.4996,139.512 97.5,158.5C 96.6919,158.808 96.0253,159.308 95.5,160C 89.8333,160.667 84.1667,160.667 78.5,160C 77.5838,159.626 76.7504,159.126 76,158.5C 76.0595,155.157 74.5595,153.157 71.5,152.5C 66.7283,150.28 62.0616,147.78 57.5,145C 56.2068,144.51 54.8734,144.343 53.5,144.5C 52.3199,142.986 51.3199,141.319 50.5,139.5C 45.2012,137.184 39.8678,135.184 34.5,133.5C 32.7541,130.808 30.4207,128.808 27.5,127.5C 26.7225,124.888 25.0559,123.055 22.5,122C 22.3788,96.609 22.5454,71.109 23,45.5C 24.2988,45.9662 25.7988,45.9662 27.5,45.5C 27.8719,42.9783 27.0386,40.9783 25,39.5C 24.586,39.9574 24.086,40.2907 23.5,40.5C 22.359,38.5787 22.1923,36.5787 23,34.5C 24.8778,37.0691 26.3778,36.7357 27.5,33.5C 33.7985,32.5037 40.1318,32.1703 46.5,32.5C 46.6666,53.5026 46.5,74.5026 46,95.5C 44.977,96.6001 44.477,97.9334 44.5,99.5C 44.9224,103.213 45.589,106.88 46.5,110.5C 47.9038,109.001 48.5704,109.334 48.5,111.5C 46.87,113.942 47.2033,115.942 49.5,117.5C 50.4209,115.244 52.0876,114.244 54.5,114.5C 54.0137,116.807 54.0137,118.973 54.5,121C 58.3,121.562 58.9666,120.562 56.5,118C 59.1589,118.16 61.8255,118.66 64.5,119.5 Z"/></g>
<g><path style="opacity:1" fill="#3e1903" d="M 48.5,31.5 C 48.8432,57.0555 49.8432,82.5555 51.5,108C 51.2716,108.399 50.9382,108.565 50.5,108.5C 50.1667,108.5 49.8333,108.5 49.5,108.5C 48.5022,83.0054 48.1689,57.3388 48.5,31.5 Z"/></g>
<g><path style="opacity:1" fill="#3a1700" d="M 104.5,53.5 C 102.849,60.2741 101.849,67.2741 101.5,74.5C 101.5,67.1667 101.5,59.8333 101.5,52.5C 101.435,52.0618 101.601,51.7284 102,51.5C 102.995,52.0659 103.828,52.7326 104.5,53.5 Z"/></g>
<g><path style="opacity:1" fill="#8f5729" d="M 19.5,30.5 C 28.8333,30.5 38.1667,30.5 47.5,30.5C 47.5,30.8333 47.5,31.1667 47.5,31.5C 38.5822,31.1828 29.7489,31.5161 21,32.5C 20.3333,63.1667 20.3333,93.8333 21,124.5C 23.2508,125.412 25.4175,126.412 27.5,127.5C 30.4207,128.808 32.7541,130.808 34.5,133.5C 27.8549,131.514 22.1882,128.014 17.5,123C 17.6301,121.941 18.1301,121.108 19,120.5C 19.5,90.5019 19.6666,60.5019 19.5,30.5 Z"/></g>
<g><path style="opacity:1" fill="#e69a37" d="M 153.5,47.5 C 154.609,47.5569 155.609,47.8902 156.5,48.5C 156.107,50.2838 155.441,51.9505 154.5,53.5C 153.502,82.6619 153.169,111.995 153.5,141.5C 144.827,141.666 136.16,141.5 127.5,141C 126.944,140.617 126.611,140.117 126.5,139.5C 135.113,140.442 143.779,140.775 152.5,140.5C 152.205,109.479 152.538,78.4793 153.5,47.5 Z"/></g>
<g><path style="opacity:1" fill="#120201" d="M 104.5,53.5 C 105.167,53.5 105.833,53.5 106.5,53.5C 111.665,57.5863 117.332,60.9196 123.5,63.5C 124.49,89.7591 124.824,116.092 124.5,142.5C 123.553,140.545 122.219,140.211 120.5,141.5C 119.328,141.081 118.328,140.415 117.5,139.5C 118.192,136.877 119.692,134.877 122,133.5C 122.18,111.872 122.347,90.2055 122.5,68.5C 121.167,68.5 119.833,68.5 118.5,68.5C 118.649,67.448 118.483,66.448 118,65.5C 114.947,63.5699 112.447,61.0699 110.5,58C 108.833,57.3333 107.167,57.3333 105.5,58C 104.203,63.9683 102.87,69.8016 101.5,75.5C 101.5,75.1667 101.5,74.8333 101.5,74.5C 101.849,67.2741 102.849,60.2741 104.5,53.5 Z"/></g>
<g><path style="opacity:1" fill="#e59934" d="M 106.5,53.5 C 108.482,53.9954 110.482,54.4954 112.5,55C 116.852,58.5338 121.852,60.5338 127.5,61C 126.535,86.8758 126.202,113.042 126.5,139.5C 126.167,139.5 125.833,139.5 125.5,139.5C 126.157,113.811 125.491,88.478 123.5,63.5C 117.332,60.9196 111.665,57.5863 106.5,53.5 Z"/></g>
<g><path style="opacity:1" fill="#d09465" d="M 154.5,53.5 C 154.5,83.1667 154.5,112.833 154.5,142.5C 144.833,142.5 135.167,142.5 125.5,142.5C 125.5,141.5 125.5,140.5 125.5,139.5C 125.833,139.5 126.167,139.5 126.5,139.5C 126.611,140.117 126.944,140.617 127.5,141C 136.16,141.5 144.827,141.666 153.5,141.5C 153.169,111.995 153.502,82.6619 154.5,53.5 Z"/></g>
<g><path style="opacity:1" fill="#814b23" d="M 53.5,144.5 C 54.8734,144.343 56.2068,144.51 57.5,145C 62.0616,147.78 66.7283,150.28 71.5,152.5C 72.4916,155.138 73.4916,157.805 74.5,160.5C 81.8107,161.665 89.144,161.831 96.5,161C 97.7659,160.691 98.9326,160.191 100,159.5C 100.667,139.833 100.667,120.167 100,100.5C 98.6439,99.6198 97.1439,99.2865 95.5,99.5C 88.1667,99.5 80.8333,99.5 73.5,99.5C 73.5,106.833 73.5,114.167 73.5,121.5C 70.2153,121.79 67.2153,121.123 64.5,119.5C 60.0961,116.454 55.4295,113.621 50.5,111C 49.7476,110.329 49.4142,109.496 49.5,108.5C 49.8333,108.5 50.1667,108.5 50.5,108.5C 56.5898,112.59 62.9232,116.257 69.5,119.5C 70.209,120.404 71.209,120.737 72.5,120.5C 72.5,113.167 72.5,105.833 72.5,98.5C 81.9856,97.5062 91.6522,97.1729 101.5,97.5C 101.5,119.5 101.5,141.5 101.5,163.5C 91.8276,163.666 82.1609,163.5 72.5,163C 71.8333,160.333 71.1667,157.667 70.5,155C 64.7694,151.475 59.1027,147.975 53.5,144.5 Z"/></g>
<g><path style="opacity:1" fill="#6e4112" d="M 123.5,63.5 C 125.491,88.478 126.157,113.811 125.5,139.5C 125.5,140.5 125.5,141.5 125.5,142.5C 125.167,142.5 124.833,142.5 124.5,142.5C 124.824,116.092 124.49,89.7591 123.5,63.5 Z"/></g>
<g><path style="opacity:1" fill="#421a05" d="M 72.5,98.5 C 72.5,105.833 72.5,113.167 72.5,120.5C 71.209,120.737 70.209,120.404 69.5,119.5C 71.1514,112.726 72.1514,105.726 72.5,98.5 Z"/></g>
<g><path style="opacity:1" fill="#a85914" d="M 47.5,31.5 C 47.8333,31.5 48.1667,31.5 48.5,31.5C 48.1689,57.3388 48.5022,83.0054 49.5,108.5C 49.4142,109.496 49.7476,110.329 50.5,111C 55.4295,113.621 60.0961,116.454 64.5,119.5C 61.8255,118.66 59.1589,118.16 56.5,118C 58.9666,120.562 58.3,121.562 54.5,121C 54.0137,118.973 54.0137,116.807 54.5,114.5C 52.0876,114.244 50.4209,115.244 49.5,117.5C 47.2033,115.942 46.87,113.942 48.5,111.5C 48.5704,109.334 47.9038,109.001 46.5,110.5C 45.589,106.88 44.9224,103.213 44.5,99.5C 44.477,97.9334 44.977,96.6001 46,95.5C 46.5,74.5026 46.6666,53.5026 46.5,32.5C 40.1318,32.1703 33.7985,32.5037 27.5,33.5C 26.3778,36.7357 24.8778,37.0691 23,34.5C 22.1923,36.5787 22.359,38.5787 23.5,40.5C 24.086,40.2907 24.586,39.9574 25,39.5C 27.0386,40.9783 27.8719,42.9783 27.5,45.5C 25.7988,45.9662 24.2988,45.9662 23,45.5C 22.5454,71.109 22.3788,96.609 22.5,122C 25.0559,123.055 26.7225,124.888 27.5,127.5C 25.4175,126.412 23.2508,125.412 21,124.5C 20.3333,93.8333 20.3333,63.1667 21,32.5C 29.7489,31.5161 38.5822,31.1828 47.5,31.5 Z"/></g>
<g><path style="opacity:1" fill="#92511a" d="M 34.5,133.5 C 39.8678,135.184 45.2012,137.184 50.5,139.5C 51.3199,141.319 52.3199,142.986 53.5,144.5C 46.7001,141.601 40.3667,137.935 34.5,133.5 Z"/></g>
<g><path style="opacity:1" fill="#a75915" d="M 95.5,99.5 C 97.1439,99.2865 98.6439,99.6198 100,100.5C 100.667,120.167 100.667,139.833 100,159.5C 98.9326,160.191 97.7659,160.691 96.5,161C 89.144,161.831 81.8107,161.665 74.5,160.5C 73.4916,157.805 72.4916,155.138 71.5,152.5C 74.5595,153.157 76.0595,155.157 76,158.5C 76.7504,159.126 77.5838,159.626 78.5,160C 84.1667,160.667 89.8333,160.667 95.5,160C 96.0253,159.308 96.6919,158.808 97.5,158.5C 98.4996,139.512 98.8329,120.512 98.5,101.5C 96.8212,101.715 95.8212,101.048 95.5,99.5 Z"/></g>
</svg>
