<?xml version="1.0" encoding="UTF-8"?>
<!DOCTYPE svg PUBLIC "-//W3C//DTD SVG 1.1//EN" "http://www.w3.org/Graphics/SVG/1.1/DTD/svg11.dtd">
<svg xmlns="http://www.w3.org/2000/svg" version="1.1" width="1200px" height="1200px" style="shape-rendering:geometricPrecision; text-rendering:geometricPrecision; image-rendering:optimizeQuality; fill-rule:evenodd; clip-rule:evenodd" xmlns:xlink="http://www.w3.org/1999/xlink">
<g><path style="opacity:1" fill="#065470" d="M -0.5,-0.5 C 399.5,-0.5 799.5,-0.5 1199.5,-0.5C 1199.5,399.5 1199.5,799.5 1199.5,1199.5C 799.5,1199.5 399.5,1199.5 -0.5,1199.5C -0.5,799.5 -0.5,399.5 -0.5,-0.5 Z"/></g>
<g><path style="opacity:1" fill="#f9bd46" d="M 864.5,412.5 C 873.862,412.433 883.196,412.933 892.5,414C 893.46,417.73 893.793,421.563 893.5,425.5C 885.869,424.436 878.202,424.269 870.5,425C 865.053,428.269 863.053,433.102 864.5,439.5C 873.5,439.5 882.5,439.5 891.5,439.5C 891.5,443.5 891.5,447.5 891.5,451.5C 882.5,451.5 873.5,451.5 864.5,451.5C 864.5,469.5 864.5,487.5 864.5,505.5C 858.833,505.5 853.167,505.5 847.5,505.5C 847.5,487.5 847.5,469.5 847.5,451.5C 842.167,451.5 836.833,451.5 831.5,451.5C 831.5,447.5 831.5,443.5 831.5,439.5C 836.833,439.5 842.167,439.5 847.5,439.5C 845.411,425.3 851.078,416.3 864.5,412.5 Z"/></g>
<g><path style="opacity:1" fill="#f6bc46" d="M 988.5,414.5 C 1000.17,414.5 1011.83,414.5 1023.5,414.5C 1023.5,440.833 1023.5,467.167 1023.5,493.5C 1030.5,493.5 1037.5,493.5 1044.5,493.5C 1044.5,497.5 1044.5,501.5 1044.5,505.5C 1023.5,505.5 1002.5,505.5 981.5,505.5C 981.5,501.5 981.5,497.5 981.5,493.5C 989.5,493.5 997.5,493.5 1005.5,493.5C 1005.5,471.167 1005.5,448.833 1005.5,426.5C 1000.02,425.511 994.358,425.178 988.5,425.5C 988.5,421.833 988.5,418.167 988.5,414.5 Z"/></g>
<g><path style="opacity:1" fill="#fdbf45" d="M 809.5,439.5 C 809.5,443.167 809.5,446.833 809.5,450.5C 801.648,450.175 793.982,450.508 786.5,451.5C 786.037,464.932 786.537,478.265 788,491.5C 788.833,492.333 789.667,493.167 790.5,494C 797.869,494.726 805.202,494.559 812.5,493.5C 812.5,497.167 812.5,500.833 812.5,504.5C 801.077,507.236 789.744,507.069 778.5,504C 773.851,501.545 771.017,497.712 770,492.5C 769.5,478.504 769.333,464.504 769.5,450.5C 766.167,450.5 762.833,450.5 759.5,450.5C 759.5,446.833 759.5,443.167 759.5,439.5C 763.226,439.823 766.893,439.489 770.5,438.5C 772.182,433.145 773.849,427.812 775.5,422.5C 779.167,422.5 782.833,422.5 786.5,422.5C 786.5,428.167 786.5,433.833 786.5,439.5C 794.167,439.5 801.833,439.5 809.5,439.5 Z"/></g>
<g><path style="opacity:1" fill="#fcbe45" d="M 157.5,423.5 C 177.167,423.5 196.833,423.5 216.5,423.5C 216.5,428.167 216.5,432.833 216.5,437.5C 202.833,437.5 189.167,437.5 175.5,437.5C 175.5,444.167 175.5,450.833 175.5,457.5C 188.167,457.5 200.833,457.5 213.5,457.5C 213.5,462.167 213.5,466.833 213.5,471.5C 200.833,471.5 188.167,471.5 175.5,471.5C 175.5,478.167 175.5,484.833 175.5,491.5C 190.167,491.5 204.833,491.5 219.5,491.5C 219.5,496.167 219.5,500.833 219.5,505.5C 198.833,505.5 178.167,505.5 157.5,505.5C 157.5,478.167 157.5,450.833 157.5,423.5 Z"/></g>
<g><path style="opacity:1" fill="#fbbe45" d="M 532.5,423.5 C 547.544,423.104 562.544,423.604 577.5,425C 589.315,428.145 594.981,435.812 594.5,448C 594.41,459.253 589.076,466.753 578.5,470.5C 585.123,482.25 592.123,493.75 599.5,505C 592.476,505.831 585.476,505.664 578.5,504.5C 573,494.833 567.5,485.167 562,475.5C 558.27,474.54 554.437,474.207 550.5,474.5C 550.5,484.833 550.5,495.167 550.5,505.5C 544.5,505.5 538.5,505.5 532.5,505.5C 532.5,478.167 532.5,450.833 532.5,423.5 Z"/></g>
<g><path style="opacity:1" fill="#7f875a" d="M 988.5,414.5 C 988.5,418.167 988.5,421.833 988.5,425.5C 994.358,425.178 1000.02,425.511 1005.5,426.5C 999.5,426.5 993.5,426.5 987.5,426.5C 987.183,422.298 987.517,418.298 988.5,414.5 Z"/></g>
<g><path style="opacity:1" fill="#155670" d="M 550.5,437.5 C 557.589,437.116 564.589,437.616 571.5,439C 576.316,443.055 577.816,448.222 576,454.5C 574.457,456.378 572.624,457.878 570.5,459C 563.908,460.329 557.241,460.829 550.5,460.5C 550.5,452.833 550.5,445.167 550.5,437.5 Z"/></g>
<g><path style="opacity:1" fill="#f9bd46" d="M 252.5,438.5 C 260.337,437.968 268.003,438.801 275.5,441C 281.622,444.387 285.455,449.554 287,456.5C 287.333,468.5 287.667,480.5 288,492.5C 288.374,493.416 288.874,494.25 289.5,495C 291.81,495.497 294.143,495.663 296.5,495.5C 296.5,498.5 296.5,501.5 296.5,504.5C 290.87,505.521 285.204,505.687 279.5,505C 274.641,502.79 272.141,498.957 272,493.5C 264.271,506.148 253.437,509.648 239.5,504C 231.927,497.548 229.427,489.381 232,479.5C 234.881,471.297 240.714,466.797 249.5,466C 256.158,465.5 262.825,465.334 269.5,465.5C 269.665,461.818 269.499,458.152 269,454.5C 265.49,449.553 260.99,448.387 255.5,451C 253.253,452.995 252.253,455.495 252.5,458.5C 246.5,458.167 240.5,457.833 234.5,457.5C 235.175,451.636 237.842,446.803 242.5,443C 245.946,441.491 249.28,439.991 252.5,438.5 Z"/></g>
<g><path style="opacity:1" fill="#fabd46" d="M 331.5,438.5 C 342.444,437.449 352.278,440.116 361,446.5C 362.993,449.661 364.493,452.994 365.5,456.5C 360.13,456.392 354.797,456.725 349.5,457.5C 349.256,454.737 347.923,452.571 345.5,451C 340.167,450.333 334.833,450.333 329.5,451C 325.787,452.691 324.621,455.525 326,459.5C 327.319,461.487 329.152,462.654 331.5,463C 339.58,464.687 347.58,466.687 355.5,469C 366.712,475.412 369.546,484.578 364,496.5C 359.029,501.902 352.863,505.069 345.5,506C 334.593,507.46 324.259,505.793 314.5,501C 310.2,497.898 307.867,493.731 307.5,488.5C 312.5,487.833 317.5,487.167 322.5,486.5C 324.746,493.671 329.746,496.671 337.5,495.5C 341.327,495.392 344.993,494.558 348.5,493C 352.737,488.939 352.403,485.272 347.5,482C 338.881,479.542 330.215,477.209 321.5,475C 309.633,469.403 306.466,460.57 312,448.5C 317.163,442.336 323.663,439.003 331.5,438.5 Z"/></g>
<g><path style="opacity:1" fill="#f9bd46" d="M 631.5,438.5 C 657.214,437.882 669.547,450.549 668.5,476.5C 653.5,476.5 638.5,476.5 623.5,476.5C 623.886,491.052 631.219,496.885 645.5,494C 648.12,491.87 650.62,489.703 653,487.5C 657.85,488.029 662.683,488.696 667.5,489.5C 662.435,499.204 654.435,504.704 643.5,506C 622.6,508.816 610.1,499.983 606,479.5C 602.431,457.917 610.931,444.251 631.5,438.5 Z"/></g>
<g><path style="opacity:1" fill="#fabd46" d="M 706.5,438.5 C 717.444,437.449 727.278,440.116 736,446.5C 737.993,449.661 739.493,452.994 740.5,456.5C 735.13,456.392 729.797,456.725 724.5,457.5C 724.256,454.737 722.923,452.571 720.5,451C 715.167,450.333 709.833,450.333 704.5,451C 700.787,452.691 699.621,455.525 701,459.5C 702.319,461.487 704.152,462.654 706.5,463C 714.58,464.687 722.58,466.687 730.5,469C 741.712,475.412 744.546,484.578 739,496.5C 734.029,501.902 727.863,505.069 720.5,506C 709.593,507.46 699.259,505.793 689.5,501C 685.2,497.898 682.867,493.731 682.5,488.5C 687.5,487.833 692.5,487.167 697.5,486.5C 699.746,493.671 704.746,496.671 712.5,495.5C 716.327,495.392 719.993,494.558 723.5,493C 727.737,488.939 727.403,485.272 722.5,482C 713.881,479.542 705.215,477.209 696.5,475C 684.633,469.403 681.466,460.57 687,448.5C 692.163,442.336 698.663,439.003 706.5,438.5 Z"/></g>
<g><path style="opacity:1" fill="#fbbe45" d="M 376.5,440.5 C 382.645,439.51 388.978,439.177 395.5,439.5C 401.421,456.761 407.254,474.095 413,491.5C 418.065,474.139 423.231,456.805 428.5,439.5C 434.842,439.334 441.175,439.5 447.5,440C 437.625,463.612 428.125,487.446 419,511.5C 412.967,528.107 401.134,534.774 383.5,531.5C 383.5,527.167 383.5,522.833 383.5,518.5C 394.416,520.569 401.083,516.236 403.5,505.5C 402.973,502.419 402.14,499.419 401,496.5C 393.093,477.574 384.926,458.907 376.5,440.5 Z"/></g>
<g><path style="opacity:1" fill="#f8bd46" d="M 907.5,439.5 C 913.167,439.5 918.833,439.5 924.5,439.5C 924.333,453.171 924.5,466.837 925,480.5C 926.305,492.199 932.138,495.699 942.5,491C 944.652,488.531 946.152,485.698 947,482.5C 947.5,468.171 947.667,453.837 947.5,439.5C 953.5,439.5 959.5,439.5 965.5,439.5C 965.5,461.5 965.5,483.5 965.5,505.5C 960.167,505.5 954.833,505.5 949.5,505.5C 948.869,501.196 948.369,496.863 948,492.5C 940.643,506.619 929.81,510.119 915.5,503C 911.003,498.838 908.503,493.672 908,487.5C 907.5,471.503 907.333,455.503 907.5,439.5 Z"/></g>
<g><path style="opacity:1" fill="#115570" d="M 632.5,449.5 C 644.333,448.334 650.666,453.668 651.5,465.5C 642.167,465.5 632.833,465.5 623.5,465.5C 623.933,458.625 626.933,453.291 632.5,449.5 Z"/></g>
<g><path style="opacity:1" fill="#868b59" d="M 809.5,439.5 C 810.483,443.298 810.817,447.298 810.5,451.5C 802.5,451.5 794.5,451.5 786.5,451.5C 793.982,450.508 801.648,450.175 809.5,450.5C 809.5,446.833 809.5,443.167 809.5,439.5 Z"/></g>
<g><path style="opacity:1" fill="#155670" d="M 256.5,474.5 C 260.833,474.5 265.167,474.5 269.5,474.5C 271.131,485.273 266.798,491.94 256.5,494.5C 251.499,494.069 248.832,491.236 248.5,486C 248.392,479.998 251.059,476.165 256.5,474.5 Z"/></g>
<g><path style="opacity:1" fill="#fabd46" d="M 119.5,576.5 C 439.5,576.5 759.5,576.5 1079.5,576.5C 1079.5,584.167 1079.5,591.833 1079.5,599.5C 759.5,599.5 439.5,599.5 119.5,599.5C 119.5,591.833 119.5,584.167 119.5,576.5 Z"/></g>
<g><path style="opacity:1" fill="#fabe45" d="M 238.5,636.5 C 241.859,642.725 244.859,649.225 247.5,656C 254.511,656.757 261.511,657.591 268.5,658.5C 263.125,663.509 257.792,668.509 252.5,673.5C 254.168,679.506 255.835,685.506 257.5,691.5C 256.635,692.583 255.635,692.749 254.5,692C 249.4,688.701 244.234,685.535 239,682.5C 234.244,684.922 229.744,687.756 225.5,691C 223.975,692.009 222.308,692.509 220.5,692.5C 222.057,685.99 223.724,679.49 225.5,673C 220.012,668.346 214.679,663.513 209.5,658.5C 216.5,657.667 223.5,656.833 230.5,656C 233.069,649.459 235.736,642.959 238.5,636.5 Z"/></g>
<g><path style="opacity:1" fill="#fabe45" d="M 328.5,636.5 C 331.859,642.725 334.859,649.225 337.5,656C 344.5,656.833 351.5,657.667 358.5,658.5C 353.125,663.509 347.792,668.509 342.5,673.5C 344.323,679.793 345.99,686.126 347.5,692.5C 345.692,692.509 344.025,692.009 342.5,691C 338.256,687.756 333.756,684.922 329,682.5C 324.244,684.922 319.744,687.756 315.5,691C 313.975,692.009 312.308,692.509 310.5,692.5C 312.057,685.99 313.724,679.49 315.5,673C 310.012,668.346 304.679,663.513 299.5,658.5C 306.5,657.667 313.5,656.833 320.5,656C 323.069,649.459 325.736,642.959 328.5,636.5 Z"/></g>
<g><path style="opacity:1" fill="#fabe45" d="M 418.5,636.5 C 421.859,642.725 424.859,649.225 427.5,656C 434.5,656.833 441.5,657.667 448.5,658.5C 443.125,663.509 437.792,668.509 432.5,673.5C 434.323,679.793 435.99,686.126 437.5,692.5C 435.692,692.509 434.025,692.009 432.5,691C 428.256,687.756 423.756,684.922 419,682.5C 414.244,684.922 409.744,687.756 405.5,691C 403.975,692.009 402.308,692.509 400.5,692.5C 402.057,685.99 403.724,679.49 405.5,673C 400.012,668.346 394.679,663.513 389.5,658.5C 396.5,657.667 403.5,656.833 410.5,656C 413.069,649.459 415.736,642.959 418.5,636.5 Z"/></g>
<g><path style="opacity:1" fill="#fabe46" d="M 778.5,636.5 C 781.859,642.725 784.859,649.225 787.5,656C 794.5,656.833 801.5,657.667 808.5,658.5C 803.797,663.368 798.631,667.701 793,671.5C 794.039,678.524 795.539,685.524 797.5,692.5C 795.692,692.509 794.025,692.009 792.5,691C 788.256,687.756 783.756,684.922 779,682.5C 774.244,684.922 769.744,687.756 765.5,691C 763.975,692.009 762.308,692.509 760.5,692.5C 761.999,685.988 763.665,679.488 765.5,673C 760.012,668.346 754.679,663.513 749.5,658.5C 756.478,657.502 763.478,656.668 770.5,656C 773.069,649.459 775.736,642.959 778.5,636.5 Z"/></g>
<g><path style="opacity:1" fill="#fabe45" d="M 868.5,636.5 C 871.859,642.725 874.859,649.225 877.5,656C 884.5,656.833 891.5,657.667 898.5,658.5C 893.797,663.368 888.631,667.701 883,671.5C 884.039,678.524 885.539,685.524 887.5,692.5C 885.692,692.509 884.025,692.009 882.5,691C 878.256,687.756 873.756,684.922 869,682.5C 864.244,684.922 859.744,687.756 855.5,691C 853.975,692.009 852.308,692.509 850.5,692.5C 852.057,685.99 853.724,679.49 855.5,673C 850.012,668.346 844.679,663.513 839.5,658.5C 846.5,657.667 853.5,656.833 860.5,656C 863.069,649.459 865.736,642.959 868.5,636.5 Z"/></g>
<g><path style="opacity:1" fill="#fabe45" d="M 958.5,636.5 C 961.859,642.725 964.859,649.225 967.5,656C 974.5,656.833 981.5,657.667 988.5,658.5C 983.797,663.368 978.631,667.701 973,671.5C 974.039,678.524 975.539,685.524 977.5,692.5C 975.692,692.509 974.025,692.009 972.5,691C 968.256,687.756 963.756,684.922 959,682.5C 954.244,684.922 949.744,687.756 945.5,691C 943.975,692.009 942.308,692.509 940.5,692.5C 942.057,685.99 943.724,679.49 945.5,673C 940.012,668.346 934.679,663.513 929.5,658.5C 936.5,657.667 943.5,656.833 950.5,656C 953.069,649.459 955.736,642.959 958.5,636.5 Z"/></g>
<g><path style="opacity:1" fill="#f8bd46" d="M 517.5,647.5 C 572.168,647.333 626.834,647.5 681.5,648C 685.77,649.27 688.27,652.104 689,656.5C 689.5,706.499 689.667,756.499 689.5,806.5C 629.5,806.5 569.5,806.5 509.5,806.5C 509.333,756.166 509.5,705.832 510,655.5C 511.353,651.65 513.853,648.983 517.5,647.5 Z"/></g>
<g><path style="opacity:1" fill="#085470" d="M 517.5,655.5 C 572.168,655.333 626.834,655.5 681.5,656C 682.467,660.401 682.8,664.901 682.5,669.5C 627.167,669.5 571.833,669.5 516.5,669.5C 516.226,664.737 516.559,660.07 517.5,655.5 Z"/></g>
<g><path style="opacity:1" fill="#6e7f5e" d="M 517.5,676.5 C 517.5,717.167 517.5,757.833 517.5,798.5C 572.167,798.5 626.833,798.5 681.5,798.5C 681.5,757.833 681.5,717.167 681.5,676.5C 682.499,717.33 682.832,758.33 682.5,799.5C 627.167,799.5 571.833,799.5 516.5,799.5C 516.168,758.33 516.501,717.33 517.5,676.5 Z"/></g>
<g><path style="opacity:1" fill="#075470" d="M 517.5,676.5 C 572.167,676.5 626.833,676.5 681.5,676.5C 681.5,717.167 681.5,757.833 681.5,798.5C 626.833,798.5 572.167,798.5 517.5,798.5C 517.5,757.833 517.5,717.167 517.5,676.5 Z"/></g>
<g><path style="opacity:1" fill="#f3bb47" d="M 629.5,712.5 C 640.39,716.363 650.557,721.696 660,728.5C 660.667,729.833 660.667,731.167 660,732.5C 651.75,738.043 643.25,743.21 634.5,748C 628.833,749.333 627.167,747.333 629.5,742C 636.202,738.655 642.535,734.821 648.5,730.5C 642.298,726.468 635.965,722.635 629.5,719C 628.232,716.837 628.232,714.67 629.5,712.5 Z"/></g>
<g><path style="opacity:1" fill="#f2ba47" d="M 565.5,712.5 C 569.509,712.014 571.342,713.68 571,717.5C 564.082,721.708 557.249,726.042 550.5,730.5C 556.713,734.862 563.213,738.862 570,742.5C 571.293,745.862 570.293,747.862 567,748.5C 559.147,744.489 551.314,740.322 543.5,736C 540.936,734.938 539.269,733.104 538.5,730.5C 538.529,728.971 539.196,727.804 540.5,727C 548.896,722.14 557.23,717.307 565.5,712.5 Z"/></g>
<g><path style="opacity:1" fill="#f5bb47" d="M 612.5,690.5 C 614.39,690.297 615.89,690.963 617,692.5C 617.484,694.913 617.15,697.246 616,699.5C 605.553,725.513 594.719,751.346 583.5,777C 580.094,778.24 578.427,777.073 578.5,773.5C 578.692,771.423 579.192,769.423 580,767.5C 590.743,741.764 601.576,716.097 612.5,690.5 Z"/></g>
</svg>
